<svg xmlns="http://www.w3.org/2000/svg" xmlns:svg="http://www.w3.org/2000/svg" id="svg19" fill-rule="evenodd" stroke-linejoin="round" stroke-miterlimit="1.414" clip-rule="evenodd" version="1.1" viewBox="0 0 1024 1024" xml:space="preserve"><metadata id="metadata23"/><defs id="defs15"><linearGradient id="a" x1="18.23" x2="150" y1="150" y2="0" gradientTransform="matrix(8.96 0 0 8.96 -7.8457e-5 .00019795)" gradientUnits="userSpaceOnUse"><stop id="stop10" offset="0" stop-color="#0082c9"/><stop id="stop12" offset="1" stop-color="#1cafff"/></linearGradient></defs><rect id="rect17" width="1024" height="1024" fill="url(#a)" fill-rule="evenodd" rx="160"/><path style="fill:#fff" id="path25" fill="#000" stroke-width=".14" d="M 511.95919,186 A 325.96385,325.95103 0 0 0 186,511.96034 325.96385,325.95103 0 0 0 511.95919,837.91133 325.96385,325.95103 0 0 0 681.04889,790.22529 c 40.06218,15.91895 129.79781,63.14682 151.15526,42.74701 22.3177,-21.31206 -26.20129,-121.61808 -37.83331,-158.89148 A 325.96385,325.95103 0 0 0 837.91466,511.95755 325.96385,325.95103 0 0 0 511.96013,186.01118 Z m 0.0373,123.92323 A 202.1178,202.11161 0 0 1 714.11425,512.03485 202.1178,202.11161 0 0 1 511.99645,714.13247 202.1178,202.11161 0 0 1 309.87866,512.03485 202.1178,202.11161 0 0 1 511.99645,309.92323 Z"/></svg>